 <svg  version="1.0" xmlns="http://www.w3.org/2000/svg"  width="300.000000pt" height="110.000000pt" viewBox="0 0 300.000000 110.000000"  preserveAspectRatio="xMidYMid meet">  <g transform="translate(0.000000,110.000000) scale(0.050000,-0.050000)" fill="#c4a577" stroke="none"> <path d="M1118 1850 c-184 -96 -318 -316 -325 -533 -3 -132 35 -187 58 -83 57 255 167 397 386 498 96 44 123 66 123 100 0 82 -105 90 -242 18z"/> <path d="M1456 1720 c-117 -20 -272 -103 -358 -192 -84 -87 -37 -113 72 -39 150 101 339 118 553 48 142 -46 197 -41 197 19 0 110 -256 200 -464 164z"/> <path d="M641 1644 c-157 -156 -107 -545 97 -762 88 -94 130 -57 59 52 -110 166 -128 368 -54 580 62 177 11 243 -102 130z"/> <path d="M2645 1346 c-67 -9 -88 -53 -35 -73 55 -21 37 -113 -22 -113 -81 0 -168 -100 -168 -194 0 -130 94 -214 173 -156 29 21 43 21 77 -2 36 -23 48 -23 86 3 52 37 57 69 11 69 -30 0 -32 25 -21 240 9 181 6 239 -12 237 -13 -2 -53 -7 -89 -11z m-5 -366 c0 -115 -61 -145 -104 -50 -29 65 6 150 64 150 35 0 40 -13 40 -100z"/> <path d="M5522 1342 c-70 -12 -112 -62 -54 -62 37 0 49 -407 12 -430 -47 -29 -13 -50 80 -50 76 0 100 7 100 30 0 17 -10 30 -22 30 -16 0 -20 74 -15 250 6 167 2 249 -12 247 -12 -1 -52 -8 -89 -15z"/> <path d="M1005 1272 c-6 -10 5 -30 25 -44 44 -32 28 -315 -21 -369 -46 -51 -36 -59 71 -59 76 0 100 7 100 30 0 17 -13 30 -30 30 -23 0 -30 27 -30 120 0 162 27 151 77 -32 62 -228 91 -228 163 2 35 113 52 144 63 117 25 -65 18 -181 -13 -207 -53 -44 -32 -60 80 -60 84 0 110 7 110 30 0 17 -12 30 -27 30 -57 0 -78 346 -23 367 17 7 30 26 30 45 0 21 -11 28 -32 20 -17 -7 -61 -12 -98 -12 -65 0 -68 -4 -100 -115 -51 -183 -53 -183 -95 -32 l-40 143 -99 7 c-55 4 -105 -1 -111 -11z"/> <path d="M3385 1285 c-96 -6 -164 -65 -75 -65 35 0 33 9 30 -240 -2 -134 -11 -199 -31 -221 -65 -72 -26 -99 71 -49 70 36 74 49 91 305 7 113 21 205 31 205 10 0 18 18 18 40 0 22 -7 38 -15 36 -8 -2 -62 -7 -120 -11z"/> <path d="M1713 1137 c-52 -30 -96 -146 -81 -212 58 -242 385 -141 339 104 -21 113 -154 169 -258 108z m126 -86 c39 -47 19 -181 -29 -181 -48 0 -81 83 -62 157 14 58 54 69 91 24z"/> <path d="M2086 1112 c-69 -60 -80 -202 -20 -268 88 -97 257 -60 291 64 55 201 -120 333 -271 204z m161 -94 c37 -105 -20 -197 -83 -134 -26 26 -33 160 -10 183 27 28 75 2 93 -49z"/> <path d="M2794 1135 c-5 -14 4 -39 19 -57 110 -127 135 -357 39 -358 -53 -1 -80 -36 -53 -68 70 -85 166 7 269 254 35 84 74 164 88 178 48 48 27 76 -58 76 -79 0 -82 -2 -69 -52 15 -60 -25 -200 -50 -175 -28 30 -46 167 -21 167 12 0 22 14 22 30 0 38 -172 43 -186 5z"/> <path d="M3646 1140 c-90 -37 -119 -215 -48 -302 57 -71 190 -66 254 9 137 158 -12 371 -206 293z m125 -108 c22 -86 3 -162 -41 -162 -43 0 -69 80 -53 165 11 61 79 60 94 -3z"/> <path d="M3995 1146 c-51 -8 -81 -66 -34 -66 13 0 21 -39 19 -95 -6 -154 -2 -165 53 -186 41 -16 61 -13 90 14 35 31 39 31 75 -1 30 -27 48 -30 78 -14 52 28 73 82 31 82 -28 0 -31 21 -22 142 10 136 8 141 -33 130 -23 -6 -59 -12 -79 -12 -30 0 -35 -10 -24 -45 32 -109 33 -168 1 -195 -53 -44 -76 4 -66 139 5 79 1 120 -13 118 -11 -2 -46 -7 -76 -11z"/> <path d="M4415 1146 c-50 -8 -81 -66 -35 -66 11 0 20 -49 20 -109 0 -60 -9 -114 -20 -121 -48 -30 -12 -50 90 -50 110 0 159 43 74 65 -29 7 -34 25 -28 92 9 93 41 129 58 65 19 -72 61 -48 70 39 9 97 -9 114 -75 70 -43 -28 -49 -28 -49 -1 0 16 -11 29 -25 27 -14 -2 -50 -7 -80 -11z"/> <path d="M4735 1146 c-50 -8 -81 -66 -35 -66 11 0 20 -49 20 -110 0 -60 -9 -110 -20 -110 -11 0 -20 -13 -20 -30 0 -22 23 -30 90 -30 85 0 131 43 68 64 -40 13 0 196 44 196 54 0 69 -87 32 -181 l-31 -79 99 0 c92 0 142 42 75 64 -13 5 -23 60 -25 136 -2 151 -67 207 -151 131 -37 -33 -41 -34 -41 -4 0 18 -11 32 -25 30 -14 -2 -50 -7 -80 -11z"/> <path d="M5175 1129 c-84 -46 -69 -104 16 -65 36 16 56 15 78 -4 48 -39 37 -55 -48 -70 -96 -16 -127 -49 -110 -118 15 -59 86 -87 141 -56 25 14 49 11 80 -9 40 -27 48 -25 87 16 41 44 41 46 4 60 -32 11 -36 29 -28 112 15 152 -80 210 -220 134z m125 -200 c0 -36 -48 -59 -82 -38 -17 11 -14 23 13 42 48 35 69 34 69 -4z"/> <path d="M388 1089 c-41 -164 165 -414 402 -487 132 -41 271 -55 296 -29 24 24 -30 67 -85 67 -150 0 -346 159 -448 363 -72 146 -141 182 -165 86z"/> <path d="M1340 573 c-161 -109 -396 -130 -576 -53 -160 69 -243 15 -142 -92 154 -164 533 -125 768 78 114 99 75 152 -50 67z"/> </g> </svg> 